# xmcd
#
# Track frame offsets:
#	150
#	15204
#	31870
#	49293
#	70550
#	86058
#	102965
#	121990
#	139291
#	157529
#	179641
#
# Disc length: 2644 seconds
#
# Revision: 0
# Processed by: cddbd v1.5.2PL0 Copyright (c) Steve Scherf et al.
# Submitted via: dBpowerAMP V4.0
#
DISCID=830a520b
DTITLE=big brovaz - nu flow
DYEAR=1900
DGENRE=
TTITLE0=nu flow
TTITLE1=find a way
TTITLE2=takin'it global
TTITLE3=summertime
TTITLE4=gotta get
TTITLE5=ok
TTITLE6=little mama
TTITLE7=don't watch that
TTITLE8=baby boy
TTITLE9=don't matter
TTITLE10=i know you're there
EXTD=nu flow, big brovaz
EXTT0=
EXTT1=
EXTT2=
EXTT3=
EXTT4=
EXTT5=
EXTT6=
EXTT7=
EXTT8=
EXTT9=
EXTT10=
PLAYORDER=
